<?xml version="1.0" standalone="no"?>
<!DOCTYPE svg PUBLIC "-//W3C//DTD SVG 20010904//EN"
 "http://www.w3.org/TR/2001/REC-SVG-20010904/DTD/svg10.dtd">
<svg version="1.0" xmlns="http://www.w3.org/2000/svg"
 width="132.000000pt" height="132.000000pt" viewBox="0 0 132.000000 132.000000"
 preserveAspectRatio="xMidYMid meet">
<metadata>
Created by potrace 1.11, written by Peter Selinger 2001-2013
</metadata>
<g transform="translate(0.000000,132.000000) scale(0.100000,-0.100000)"
fill="#000000" stroke="none">
<path d="M567 1309 c-11 -6 -25 -26 -33 -45 -14 -33 -16 -34 -73 -34 -43 0
-65 -5 -84 -20 -21 -17 -40 -20 -121 -20 -150 0 -136 57 -136 -558 0 -452 2
-520 16 -540 l15 -22 464 0 464 0 15 22 c14 20 16 88 16 540 0 615 14 558
-136 558 -81 0 -100 3 -121 20 -19 15 -41 20 -84 20 -57 0 -59 1 -73 34 -8 19
-23 39 -34 45 -26 14 -71 14 -95 0z m83 -79 c0 -25 -30 -41 -53 -29 -39 22 -4
79 35 58 10 -5 18 -18 18 -29z m-355 -140 c3 -11 16 -22 28 -25 12 -3 153 -4
312 -3 290 3 290 3 300 26 11 24 53 30 73 10 15 -15 17 -884 2 -908 -8 -13
-61 -15 -397 -12 -281 3 -390 7 -395 15 -4 7 -8 210 -8 453 0 329 3 443 12
452 20 20 66 15 73 -8z"/>
<path d="M395 950 c-12 -14 -25 -18 -41 -14 -31 8 -32 -15 -4 -41 20 -18 21
-18 57 17 19 20 32 41 29 47 -10 16 -20 14 -41 -9z"/>
<path d="M500 925 l0 -25 200 0 200 0 0 25 0 25 -200 0 -200 0 0 -25z"/>
<path d="M330 785 l0 -45 45 0 45 0 0 45 0 45 -45 0 -45 0 0 -45z"/>
<path d="M500 790 c0 -19 7 -20 200 -20 193 0 200 1 200 20 0 19 -7 20 -200
20 -193 0 -200 -1 -200 -20z"/>
<path d="M330 645 l0 -45 45 0 45 0 0 45 0 45 -45 0 -45 0 0 -45z"/>
<path d="M500 645 c0 -13 29 -15 200 -15 171 0 200 2 200 15 0 13 -29 15 -200
15 -171 0 -200 -2 -200 -15z"/>
<path d="M330 505 l0 -45 45 0 45 0 0 45 0 45 -45 0 -45 0 0 -45z"/>
<path d="M500 500 c0 -19 7 -20 200 -20 193 0 200 1 200 20 0 19 -7 20 -200
20 -193 0 -200 -1 -200 -20z"/>
<path d="M330 365 l0 -45 45 0 45 0 0 45 0 45 -45 0 -45 0 0 -45z"/>
<path d="M500 360 c0 -19 7 -20 200 -20 193 0 200 1 200 20 0 19 -7 20 -200
20 -193 0 -200 -1 -200 -20z"/>
</g>
</svg>
